<svg xmlns="http://www.w3.org/2000/svg" viewBox="0 0 48 48" fill="none" stroke="currentColor" stroke-width="1.5" stroke-linecap="round" stroke-linejoin="round">
  <!-- GPU 主体 -->
  <rect x="4" y="12" width="36" height="22" rx="3" fill="none"/>
  <!-- 风扇 1 -->
  <circle cx="16" cy="23" r="7" fill="none"/>
  <circle cx="16" cy="23" r="2" fill="none"/>
  <path d="M16 16 Q19 20 16 23" fill="none"/>
  <path d="M16 30 Q13 26 16 23" fill="none"/>
  <path d="M9 23 Q13 20 16 23" fill="none"/>
  <path d="M23 23 Q19 26 16 23" fill="none"/>
  <!-- 风扇 2 -->
  <circle cx="32" cy="23" r="7" fill="none"/>
  <circle cx="32" cy="23" r="2" fill="none"/>
  <path d="M32 16 Q35 20 32 23" fill="none"/>
  <path d="M32 30 Q29 26 32 23" fill="none"/>
  <path d="M25 23 Q29 20 32 23" fill="none"/>
  <path d="M39 23 Q35 26 32 23" fill="none"/>
  <!-- PCIe 金手指 -->
  <line x1="8" y1="34" x2="36" y2="34" stroke-width="2"/>
  <line x1="10" y1="37" x2="12" y2="37"/>
  <line x1="14" y1="37" x2="16" y2="37"/>
  <line x1="18" y1="37" x2="20" y2="37"/>
  <line x1="22" y1="37" x2="24" y2="37"/>
  <line x1="26" y1="37" x2="28" y2="37"/>
  <line x1="30" y1="37" x2="32" y2="37"/>
  <line x1="34" y1="37" x2="36" y2="37"/>
  <!-- 供电接口 -->
  <rect x="42" y="15" width="3" height="4" rx="0.5" fill="none"/>
  <rect x="42" y="21" width="3" height="4" rx="0.5" fill="none"/>
  <!-- RTX 标识线 -->
  <line x1="6" y1="12" x2="6" y2="8"/>
  <line x1="12" y1="12" x2="12" y2="8"/>
  <line x1="18" y1="12" x2="18" y2="8"/>
</svg>
